<svg width="320" height="320" viewBox="0 0 320 320" fill="none" xmlns="http://www.w3.org/2000/svg">
<rect x="10.5" y="10.5" width="299" height="299" rx="26.5" stroke="black" stroke-width="21"/>
<path d="M81.3189 186.54L81.2028 186.355L74.7105 153.66L81.2028 120.964L90.0453 107.708L99.4776 93.1466L123.679 76.6464L127.361 74.7266L136.212 72.3005L160 68.223L183.788 72.3005L192.639 74.7266L196.321 76.6464L220.522 93.1466L236.552 117.547L237.585 70.5112L238.823 42.4169L239.118 42H240.799L242.052 69.8053L243.455 132.701H246.407L248.016 139.778V167.542L246.407 174.618H241.128L238.797 186.355L238.681 186.54L222.817 210.471L220.309 214.072V217.967L232.498 225.754V231.595L264 255.737V268.987L237.512 275.217L160 278L82.488 275.217L56 268.987V255.737L87.5024 231.595V225.754L99.6913 217.967V214.072L97.1826 210.471L81.3189 186.54Z" fill="black"/>
</svg>
