<svg width="320" height="320" viewBox="0 0 320 320" fill="none" xmlns="http://www.w3.org/2000/svg">
<rect x="10.5" y="10.5" width="299" height="299" rx="26.5" stroke="black" stroke-width="21"/>
<path fill-rule="evenodd" clip-rule="evenodd" d="M195.186 68.3207C190.677 81.6771 183.887 91.1107 179.364 89.8898C174.457 88.5651 174.075 75.2008 178.512 60.0397C179.143 57.8821 179.838 55.8045 180.579 53.8315C170.314 44.3376 163.062 39 163.062 39C163.062 39 155.447 44.9919 144.621 55.3883C144.679 55.558 144.737 55.7281 144.795 55.8987C149.868 70.7986 151.842 83.6045 149.205 84.5014C146.815 85.3142 141.458 76.0678 136.698 63.2373C129.265 70.8353 120.997 79.9655 112.924 90.257C127.564 109.656 136.834 125.542 134.349 127.522C131.979 129.408 119.672 118.068 104.97 100.899C100.537 107.14 96.2758 113.713 92.3731 120.552C97.3643 124.218 102.694 128.359 108.149 132.846C131.171 151.78 147.721 169.695 145.114 172.86C142.508 176.026 121.733 163.243 98.7111 144.309C94.1008 140.517 89.75 136.766 85.7607 133.166C80.2823 144.649 76.0236 156.714 73.7627 169.081C79.4387 170.515 85.5011 172.293 91.7469 174.39C120.009 183.878 141.327 196.309 139.362 202.156C137.398 208.002 112.894 205.05 84.6313 195.561C80.2321 194.084 76.0011 192.536 72 190.952C73.9375 262.714 156.85 237.115 162.733 235.207L163.062 280H168.563L168.234 236.015C181.436 238.455 220.973 243.235 239.078 214.984C213.788 216.729 194.12 213.406 193.155 206.665C192.051 198.946 215.893 189.67 246.409 185.945C246.869 185.889 247.328 185.835 247.785 185.782C247.927 183.672 248 181.479 248 179.202C248 173.54 247.549 167.959 246.712 162.477C243.33 163.688 240.35 163.559 239.166 161.889C237.524 159.573 239.938 155.135 244.58 151.791C242.955 145.189 240.808 138.757 238.264 132.528C233.742 136.396 228.779 140.491 223.519 144.672C199.701 163.606 178.837 177.128 176.917 174.875C174.998 172.621 192.75 155.445 216.568 136.511C222.689 131.645 228.616 127.136 234.075 123.161C230.714 116.238 226.909 109.609 222.849 103.326C209.163 122.978 196.491 136.072 192.73 133.853C188.558 131.391 196.841 110.969 211.417 87.2585C206.016 80.3097 200.487 73.9638 195.186 68.3207ZM170.941 123.554C173.449 125.103 178.962 120.981 183.255 114.348C187.548 107.715 188.996 101.082 186.488 99.5339C183.98 97.9854 178.467 102.107 174.174 108.74C169.881 115.373 168.434 122.006 170.941 123.554ZM124.805 228.825C112.076 230.443 101.407 229.392 100.974 226.478C100.542 223.563 110.51 219.889 123.239 218.271C135.968 216.653 146.637 217.703 147.07 220.618C147.502 223.532 137.534 227.206 124.805 228.825Z" fill="black"/>
</svg>
