<svg width="320" height="320" viewBox="0 0 320 320" fill="none" xmlns="http://www.w3.org/2000/svg">
<rect x="10.5" y="10.5" width="299" height="299" rx="26.5" stroke="black" stroke-width="21"/>
<path d="M174.759 203.02L143.607 249.461L174.759 203.02Z" fill="black"/>
<path d="M217.711 49.0498L217.095 50.2618L217.711 49.0498Z" fill="black"/>
<path d="M228.502 56.0798L229.125 54.8682L228.502 56.0798Z" fill="black"/>
<path d="M65 124.675L71.8805 128.847L74.6436 136.336L77.0665 203.203L76.7432 219.75L139.005 225.066L139.994 200.202L128.399 155.906L116.804 111.61L112.778 100.084L111.846 85.7914L107.507 106.759L79.1233 125.596L65 124.675Z" fill="black"/>
<path d="M217.095 50.2618L215.712 49.5728L212.338 56.2132L202.157 63.7179L189.162 77.563L142.449 170.495L144.577 176.493L160.625 186.004L173.813 189.013L222.631 95.393L226.311 76.3473L226.434 63.4979L229.872 56.8345L228.502 56.0798L229.125 54.8682L230.525 55.5684L234.309 48.2311L229.191 45.5806L221.995 41.9272L220.067 41L216.353 48.3115L217.711 49.0498L217.095 50.2618Z" fill="black"/>
<path d="M152.183 259.166L168.826 278L223.07 260.602L249.614 209.995L243.509 202.429L255 181.279L225.698 180.358L174.759 203.02L143.607 249.461L145.624 269.329L152.183 259.166Z" fill="black"/>
</svg>
