<svg width="320" height="320" viewBox="0 0 320 320" fill="none" xmlns="http://www.w3.org/2000/svg">
<rect x="10.5" y="10.5" width="299" height="299" rx="26.5" stroke="black" stroke-width="21"/>
<path d="M199.746 251.028C199.746 254.606 201.918 258.789 208.736 257.479C208.736 257.479 185.482 269.02 166.078 269C146.708 268.98 123.522 257.479 123.522 257.479C130.238 258.721 132.41 254.556 132.41 251.011V225.998C94.9539 234.128 87.1598 210.14 87.1598 210.14C81.032 194.618 72.1944 190.486 72.1944 190.486C59.9895 182.138 73.1201 182.305 73.1201 182.305C86.6548 183.263 93.7753 196.164 93.7753 196.164C105.795 216.709 125.272 210.779 132.965 207.352C134.177 198.65 137.662 192.737 141.517 189.377C111.586 185.968 80.1563 174.427 80.1563 122.956C80.1563 108.275 85.4086 96.2973 94.0282 86.8904C92.6308 83.4801 88.018 69.8226 95.3245 51.3112C95.3245 51.3112 106.637 47.6994 132.359 65.0855C143.117 62.0958 154.631 60.6173 166.078 60.5666C177.525 60.634 189.04 62.0958 199.814 65.1195C225.52 47.7328 236.815 51.3445 236.815 51.3445C244.138 69.8393 239.526 83.5135 238.146 86.907C246.748 96.2973 252 108.291 252 122.973C252 174.578 220.486 185.95 190.488 189.276C195.336 193.443 199.746 201.607 199.746 214.155V251.028Z" fill="black"/>
</svg>
