<svg width="320" height="320" viewBox="0 0 320 320" fill="none" xmlns="http://www.w3.org/2000/svg">
<rect x="10.5" y="10.5" width="299" height="299" rx="26.5" stroke="black" stroke-width="21"/>
<path d="M122.23 171.5C98.9471 171.5 66 142.675 66 106.5C66 70.3253 95.7701 41 132.493 41H241.284V64.25H134.628C111.242 64.25 92.2836 83.166 92.2836 106.5C92.2836 129.834 115.284 146.661 122.784 146.661C129.231 117.132 155.887 95 187.79 95H212.784V117.25H186.972C163.586 117.25 144.628 136.166 144.628 159.5C144.628 182.834 163.586 201.75 186.972 201.75H212.784V226H187.79C154.518 226 127.118 202.928 122.23 171.5Z" fill="black"/>
<path d="M254.283 213.5C254.283 249.675 224.513 279 187.79 279H78.2836V255.75H187.94C211.325 255.75 230.284 236.834 230.284 213.5C230.284 190.166 211.176 171.5 187.79 171.5V148C224.513 148 254.283 177.325 254.283 213.5Z" fill="black"/>
</svg>
